<svg version="1.2" xmlns="http://www.w3.org/2000/svg" viewBox="0 0 20 20" width="20" height="20"><style>.a{fill:#292d32}</style><path fill-rule="evenodd" class="a" d="m20 5.8v8.4c0 3.6-2.2 5.8-5.8 5.8h-8.4c-3.6 0-5.8-2.2-5.8-5.8v-8.4c0-3.6 2.2-5.8 5.8-5.8h8.4c3.6 0 5.8 2.2 5.8 5.8zm-6.1 4.2c0-2.1-1.8-3.9-3.9-3.9-2.1 0-3.9 1.8-3.9 3.9 0 2.1 1.8 3.9 3.9 3.9 2.1 0 3.9-1.8 3.9-3.9zm2.1-5.5q0-0.2-0.1-0.4-0.1-0.2-0.2-0.3-0.1-0.1-0.1-0.1-0.1-0.1-0.2-0.1-0.1-0.1-0.2-0.1c-0.3 0-0.7 0.1-0.9 0.3q-0.1 0.1-0.2 0.3-0.1 0.2-0.1 0.4 0 0.2 0.1 0.4 0.1 0.2 0.2 0.3 0.3 0.3 0.7 0.3 0.2 0 0.4-0.1 0.2-0.1 0.3-0.2 0.1-0.1 0.2-0.3 0.1-0.2 0.1-0.4z"/></svg>