<?xml version="1.0" encoding="UTF-8"?>
<svg xmlns="http://www.w3.org/2000/svg" xmlns:xlink="http://www.w3.org/1999/xlink" width="2100" height="2100" viewBox="0 0 2100 2100">
<rect x="-210" y="-210" width="2520" height="2520" fill="rgb(100%, 100%, 100%)" fill-opacity="1"/>
<path fill-rule="nonzero" fill="rgb(0%, 0%, 0%)" fill-opacity="1" d="M 804.644531 375 C 713.371094 375 638.863281 449.191406 638.863281 540.46875 L 638.863281 1559.214844 C 638.863281 1650.492188 713.371094 1725 804.644531 1725 L 1295.359375 1725 C 1386.628906 1725 1461.140625 1650.492188 1461.140625 1559.214844 L 1461.140625 540.46875 C 1461.140625 449.191406 1386.628906 375 1295.359375 375 Z M 804.644531 439.230469 L 1295.359375 439.230469 C 1352.128906 439.230469 1396.910156 483.691406 1396.910156 540.46875 L 1396.910156 1559.214844 C 1396.910156 1615.988281 1352.128906 1660.773438 1295.359375 1660.773438 L 804.644531 1660.773438 C 747.875 1660.773438 703.089844 1615.988281 703.089844 1559.214844 L 703.089844 540.46875 C 703.089844 483.691406 747.875 439.230469 804.644531 439.230469 Z M 804.644531 439.230469 "/>
<path fill-rule="nonzero" fill="rgb(0%, 0%, 0%)" fill-opacity="1" d="M 991.945312 1544.980469 C 974.246094 1545.898438 960.632812 1560.964844 961.5 1578.664062 C 962.371094 1596.367188 977.402344 1610.023438 995.101562 1609.203125 L 1104.890625 1609.203125 C 1113.660156 1609.613281 1122.230469 1606.414062 1128.589844 1600.347656 C 1134.941406 1594.28125 1138.539062 1585.878906 1138.539062 1577.089844 C 1138.539062 1568.304688 1134.941406 1559.898438 1128.589844 1553.832031 C 1122.230469 1547.765625 1113.660156 1544.566406 1104.890625 1544.980469 L 995.101562 1544.980469 C 994.050781 1544.925781 992.996094 1544.925781 991.945312 1544.980469 Z M 991.945312 1544.980469 "/>
<path fill-rule="nonzero" fill="rgb(0%, 0%, 0%)" fill-opacity="1" d="M 856.546875 407 L 916.402344 494.058594 L 1183.519531 494.058594 L 1243.371094 407 Z M 856.546875 407 "/>
</svg>
